<?xml version="1.0" encoding="utf-8"?>
<!-- Generator: Adobe Illustrator 18.1.1, SVG Export Plug-In . SVG Version: 6.00 Build 0)  -->
<svg version="1.1" id="Layer_1" xmlns="http://www.w3.org/2000/svg" xmlns:xlink="http://www.w3.org/1999/xlink" x="0px" y="0px"
	 viewBox="0 0 200 200" enable-background="new 0 0 200 200" xml:space="preserve">
<polygon fill="#EF6251" points="0,158.8 0,200 200,200 200,191.5 50,153.2 "/>
<polygon fill="#EF6251" points="167.9,140 200,164.5 200,14.6 200,136.4 "/>
<polygon fill="#EF6251" points="0,0 0,12.4 87.8,79.2 200,14.6 200,0 "/>
<polygon fill="#F1715D" points="0,12.4 0,129.7 87.8,79.2 "/>
<polygon fill="#F1715D" points="50,153.2 200,191.5 200,164.5 167.9,140 "/>
<polygon fill="#F1715D" points="0,140.4 0,158.8 50,153.2 "/>
<polygon fill="#F1715D" points="167.9,140 200,136.4 200,14.6 87.8,79.2 "/>
<polygon fill="#F3826B" points="167.9,140 87.8,79.2 0,129.7 0,140.4 50,153.2 "/>
</svg>
