<?xml version="1.0" encoding="utf-8"?>
<!-- Generator: Adobe Illustrator 18.1.1, SVG Export Plug-In . SVG Version: 6.00 Build 0)  -->
<svg version="1.1" id="Layer_1" xmlns="http://www.w3.org/2000/svg" xmlns:xlink="http://www.w3.org/1999/xlink" x="0px" y="0px"
	 viewBox="0 0 200 200" enable-background="new 0 0 200 200" xml:space="preserve">
<polygon fill="#EF6251" points="-116.1,-115.2 -116.1,-74 83.9,-74 83.9,-82.5 -66.1,-120.8 "/>
<polygon fill="#EF6251" points="51.8,-134 83.9,-109.5 83.9,-259.4 83.9,-137.6 "/>
<polygon fill="#EF6251" points="-116.1,-274 -116.1,-261.6 -28.3,-194.8 83.9,-259.4 83.9,-274 "/>
<polygon fill="#F1715D" points="-116.1,-261.6 -116.1,-144.3 -28.3,-194.8 "/>
<polygon fill="#F1715D" points="-66.1,-120.8 83.9,-82.5 83.9,-109.5 51.8,-134 "/>
<polygon fill="#F1715D" points="-116.1,-133.6 -116.1,-115.2 -66.1,-120.8 "/>
<polygon fill="#F1715D" points="51.8,-134 83.9,-137.6 83.9,-259.4 -28.3,-194.8 "/>
<polygon fill="#F3826B" points="51.8,-134 -28.3,-194.8 -116.1,-144.3 -116.1,-133.6 -66.1,-120.8 "/>
<rect fill="#EF6251" width="200" height="200"/>
<polygon fill="#F1715D" points="0,31 145,71 200,31 200,0 0,0 "/>
<polygon fill="#F1715D" points="200,135.5 27.8,76 0,135.5 0,200 200,200 "/>
</svg>
